<?xml version="1.0" encoding="UTF-8"?>
<svg id="uuid-6256169d-73bb-4f0e-9604-f6b1c993e5f1" data-name="Layer 2" xmlns="http://www.w3.org/2000/svg" xmlns:xlink="http://www.w3.org/1999/xlink" viewBox="0 0 141.64 162.78">
  <defs>
    <style>
      .uuid-01f048be-26a3-4cc4-bac3-afb518838e70 {
        fill: url(#uuid-93247c62-e1d5-40a7-8ded-55ae414fd7d5);
      }

      .uuid-cd2a8a3a-2695-4f16-a761-ce3da764634b {
        fill: url(#uuid-a8c379a6-0adf-4cfb-b150-f4a9377707a2);
      }

      .uuid-8d397b82-93d1-489d-9077-5535d3b8cd6b {
        fill: url(#uuid-25f6185b-a061-491a-a16b-33863ee15c34);
      }

      .uuid-5eee4c7b-eff2-4cdd-84d7-1c2bb73f166b {
        fill: url(#uuid-b48f6b26-cbb2-4f1f-9627-1a4a492cf9d0);
      }

      .uuid-f76a2de3-5d01-4319-8b82-c1859aff30d5 {
        fill: url(#uuid-d8c227c5-50a7-4e3a-8cd0-9b54ef6ddf1b);
      }
    </style>
    <linearGradient id="uuid-b48f6b26-cbb2-4f1f-9627-1a4a492cf9d0" x1="10.23" y1="112.57" x2="141.64" y2="112.57" gradientUnits="userSpaceOnUse">
      <stop offset="0" stop-color="#0056bf"/>
      <stop offset="1" stop-color="#00acff"/>
    </linearGradient>
    <linearGradient id="uuid-93247c62-e1d5-40a7-8ded-55ae414fd7d5" x1="0" y1="49.62" x2="132.33" y2="49.62" xlink:href="#uuid-b48f6b26-cbb2-4f1f-9627-1a4a492cf9d0"/>
    <linearGradient id="uuid-d8c227c5-50a7-4e3a-8cd0-9b54ef6ddf1b" x1="6.41" y1="18.44" x2="140.45" y2="18.44" xlink:href="#uuid-b48f6b26-cbb2-4f1f-9627-1a4a492cf9d0"/>
    <linearGradient id="uuid-25f6185b-a061-491a-a16b-33863ee15c34" x1="1.77" y1="144.21" x2="135.87" y2="144.21" xlink:href="#uuid-b48f6b26-cbb2-4f1f-9627-1a4a492cf9d0"/>
    <linearGradient id="uuid-a8c379a6-0adf-4cfb-b150-f4a9377707a2" x1="6.69" y1="81.22" x2="135.31" y2="81.22" xlink:href="#uuid-b48f6b26-cbb2-4f1f-9627-1a4a492cf9d0"/>
  </defs>
  <g id="uuid-a52a6404-b73b-41c2-a31d-15476e72ff2b" data-name="Layer 1">
    <path class="uuid-5eee4c7b-eff2-4cdd-84d7-1c2bb73f166b" d="m102.65,114.48c-11.45,0-22.89-.11-34.34.04-6.23.09-10.81,2.55-11.68,9.52-.67,5.3-4.23,7.16-9.13,7.15-10.94,0-21.88-.17-32.81.03-4.37.08-5-1.29-4.08-5.39,3.35-15.06,3.2-15.08,18.26-15.13,9.16-.03,18.32,0,27.47-.2,6.19-.13,10.92-2.53,12.02-9.31.86-5.32,4.43-7.16,9.22-7.18,19.59-.07,39.18.04,58.77-.09,3.63-.02,5.12,1.47,5.19,4.84.07,3.29.11,6.59.1,9.88,0,4.1-1.97,5.7-6.17,5.61-10.94-.22-21.88-.07-32.82-.07,0,.1,0,.21,0,.31Z"/>
    <path class="uuid-01f048be-26a3-4cc4-bac3-afb518838e70" d="m39.47,48.05c10.46,0,20.91-.02,31.37,0,7.16.02,12.44-2.25,13.62-10.28.72-4.92,4.15-6.62,8.8-6.6,11.73.03,23.46.04,35.19-.03,3.07-.02,4.43.27,3.69,4.25-2.95,15.75-2.75,15.78-18.47,15.77-8.16,0-16.32-.13-24.48.03-7.91.15-14.75,1.88-16.17,11.5-.56,3.81-3.47,5.39-7.26,5.39-19.89-.02-39.78-.06-59.67.02-3.08.01-4.38-1.03-5.11-4.13-2.75-11.75.18-15.9,11.73-15.9,8.93,0,17.85,0,26.78,0,0-.01,0-.02,0-.03Z"/>
    <path class="uuid-f76a2de3-5d01-4319-8b82-c1859aff30d5" d="m6.41,36.87c9.15-13.15,20.09-19.48,34.2-19.88,11.97-.34,23.97-.18,35.95-.09,8.35.06,15.36-1.48,16.68-11.55.47-3.61,3.05-5.23,6.48-5.26,12.49-.1,24.99-.11,37.48-.06,1.14,0,3.26.68,3.26,1.07.09,5.68-2.14,10.91-3.65,16.26-1.08,3.86-4.59,2.47-7.15,2.5-10.71.13-21.42.11-32.13.03-8.16-.06-14.65,1.91-16.17,11.38-.69,4.29-4.07,5.59-7.96,5.59-21.64.04-43.28.02-66.99.02Z"/>
    <path class="uuid-8d397b82-93d1-489d-9077-5535d3b8cd6b" d="m135.87,125.65c-9.32,13.08-20.41,19.51-34.79,19.88-12.49.32-24.99.23-37.49.24-8.09.01-14.7,1.78-16.01,11.43-.59,4.36-3.98,5.51-7.93,5.5-11.22,0-22.44-.09-33.66.08-3.87.06-4.71-1.17-3.96-4.96,3.04-15.38,2.93-15.41,18.8-15.38,7.91.01,15.81.11,23.72.03,7.62-.07,14.29-1.45,15.71-10.85.54-3.55,3.08-5.94,6.95-5.94,22.32-.05,44.65-.02,68.67-.02Z"/>
    <path class="uuid-cd2a8a3a-2695-4f16-a761-ce3da764634b" d="m6.69,79.59c18.3,0,34.84-.04,51.39.02,9.1.03,17.74-.38,19.36-12.25.28-2.05,1.85-3.99,4.05-4.1,15.51-.75,31.3-2.69,44.59,8.34,3.44,2.85,6.83,5.8,9.24,11.22-16.86,0-32.56-.01-48.25,0-3.31,0-6.63-.02-9.93.21-6.09.43-10.89,2.62-12.05,9.45-.93,5.52-4.35,7.4-9.79,7.32-11.96-.18-24.03.84-34.8-6.18-5.14-3.35-9.6-7.24-13.79-14.04Z"/>
  </g>
</svg>